<svg width="1240" height="734" viewBox="0 0 1240 734" fill="none" xmlns="http://www.w3.org/2000/svg">
<path d="M650.338 9.03371C650.758 9.45297 651.682 9.88987 652.584 9.88987C653.486 9.88987 654.061 9.55888 654.061 8.90132C654.061 7.47145 649.41 7.27285 649.388 4.72203C649.388 3.24802 650.71 1.75195 652.518 1.75195C653.663 1.75195 655.184 2.28154 655.843 3.20389L654.433 4.28071C653.88 3.707 653.42 3.66286 652.713 3.6408C651.899 3.61873 651.413 4.12625 651.391 4.67348C651.391 5.8165 656.214 5.99303 656.214 8.83071C656.214 8.91897 656.192 9.0293 656.17 9.11756C656.015 10.5474 654.494 11.889 652.646 11.889C651.324 11.889 649.781 11.0108 648.968 10.2164L650.334 9.0293L650.338 9.03371Z" fill="white"/>
<path d="M657.448 4.81032H659.433V11.8052H657.448V4.81032ZM658.461 2.03884C658.726 2.03884 658.991 2.10503 659.208 2.21536C659.318 2.43602 659.385 2.72288 659.385 3.00533C659.385 3.28777 659.318 3.55697 659.208 3.79529C658.965 3.90562 658.677 3.97181 658.394 3.97181C658.111 3.97181 657.864 3.90562 657.647 3.79529C657.537 3.44223 657.47 3.07152 657.47 2.65227C657.603 2.32128 658.023 2.03442 658.461 2.03442V2.03884Z" fill="white"/>
<path d="M660.94 4.81041H662.638V5.1414C663.036 4.89868 663.518 4.74422 664.159 4.74422C665.039 4.74422 665.768 4.94281 666.338 5.64451C666.98 4.94281 667.638 4.74422 668.518 4.74422C670.393 4.72215 671.604 5.8431 671.693 7.49363C671.715 7.67016 671.715 7.84669 671.715 8.02322V11.8053H669.752V8.54838C669.752 8.26153 669.73 7.97908 669.708 7.71429C669.641 6.8802 669.265 6.48301 668.518 6.46095C667.767 6.46095 667.373 6.85813 667.307 7.69223L667.329 11.8053H665.344L665.322 7.75842C665.277 6.85813 664.879 6.46095 664.154 6.46095C663.429 6.46095 662.987 6.8802 662.943 7.71429V11.8053H660.936V4.81041H660.94Z" fill="white"/>
<path d="M673.002 4.85451H674.961V8.02318C674.939 8.35417 674.961 8.68516 674.983 8.98967C675.049 9.77963 675.491 10.2209 676.327 10.2209C677.162 10.2209 677.605 9.77963 677.671 8.98967C677.693 8.68075 677.693 8.34976 677.693 8.02318V4.85451H679.678L679.656 8.61455C679.656 8.85727 679.656 9.07793 679.634 9.29418C679.501 10.9006 678.246 11.9333 676.349 11.9333C674.302 11.9112 673.002 10.8123 673.002 8.91906V4.8501V4.85451Z" fill="white"/>
<path d="M682.865 1.53127L682.888 8.19518C682.888 8.5703 682.954 8.87481 683.042 9.09547C683.197 9.71332 683.9 9.77511 684.187 9.79717C684.408 10.062 684.011 11.536 683.79 11.8008C681.826 11.7566 680.991 10.7019 680.924 8.98514V8.3673L680.902 1.52686H682.865V1.53127Z" fill="white"/>
<path d="M687.938 4.76624C688.071 4.74418 688.225 4.74418 688.402 4.74418C689.105 4.72211 690.144 4.83244 690.892 5.14136C691.09 5.09723 691.267 5.07517 691.356 5.09723C691.643 5.14136 691.908 5.20756 692.147 5.27376V11.8053H690.184V10.9491C689.631 11.589 688.906 11.9597 687.938 11.8935C686.174 11.7391 684.874 10.1768 684.874 8.3321C684.874 6.48738 686.174 4.92512 687.938 4.77066V4.76624ZM688.557 10.0003C689.525 10.0003 690.189 9.32065 690.211 8.28355V8.26149C690.211 7.20673 689.508 6.52269 688.557 6.50062C687.611 6.50062 686.903 7.20232 686.903 8.26149C686.903 9.32065 687.567 10.0003 688.557 10.0003Z" fill="white"/>
<path d="M693.005 5.00901H693.973V2.87744H695.936V5.00901H697.28V6.68161H695.936V8.59252C695.936 8.74698 695.914 8.87938 695.936 9.01177C695.958 9.56342 696.113 9.84586 696.4 9.93413C696.688 10.0445 696.975 9.95619 697.148 9.95619L697.457 11.695C697.214 11.6729 696.622 11.8715 695.936 11.8053C694.46 11.6288 694.039 10.5299 693.995 9.38689C693.973 9.14417 693.973 8.90144 693.973 8.64106V6.68161H693.005V5.00901Z" fill="white"/>
<path d="M698.703 4.81032H700.688V11.8052H698.703V4.81032ZM699.716 2.03884C699.981 2.03884 700.246 2.10503 700.463 2.21536C700.573 2.43602 700.64 2.72288 700.64 3.00533C700.64 3.28777 700.573 3.55697 700.463 3.79529C700.22 3.90562 699.932 3.97181 699.649 3.97181C699.366 3.97181 699.119 3.90562 698.902 3.79529C698.792 3.44223 698.725 3.07152 698.725 2.65227C698.858 2.32128 699.278 2.03442 699.716 2.03442V2.03884Z" fill="white"/>
<path d="M705.503 4.74414C707.484 4.74414 709.16 6.46087 709.16 8.32765C709.16 10.1944 707.484 11.9332 705.503 11.9332C703.522 11.9332 701.847 10.2165 701.847 8.32765C701.847 6.43881 703.544 4.74414 705.503 4.74414ZM705.481 10.1326C706.449 10.1326 707.179 9.36475 707.179 8.32765C707.179 7.29055 706.454 6.54472 705.481 6.54472C704.508 6.54472 703.827 7.29055 703.827 8.32765C703.827 9.36475 704.53 10.1547 705.481 10.1326Z" fill="white"/>
<path d="M710.363 4.81039H712.061V5.20757C712.503 4.92072 713.051 4.74419 713.737 4.74419C715.806 4.72212 717.084 5.9534 717.062 7.89079L717.084 11.8053H715.125L715.103 8.19971C715.103 7.03463 714.661 6.46092 713.737 6.46092C712.923 6.46092 712.459 6.9243 712.393 7.82459C712.371 8.02319 712.371 8.24385 712.371 8.46451V11.8097H710.363V4.8148V4.81039Z" fill="white"/>
<path d="M649.236 20.6802H655.603V22.5514H651.261V24.7271H654.896V26.6203H651.261V28.774H655.603V30.6452H649.236V20.6802Z" fill="white"/>
<path d="M658.615 20.3711L658.638 27.035C658.638 27.4101 658.704 27.7147 658.792 27.9353C658.947 28.5532 659.65 28.6149 659.937 28.637C660.158 28.9018 659.761 30.3758 659.54 30.6406C657.576 30.5965 656.741 29.5417 656.674 27.825V27.2071L656.652 20.3667H658.615V20.3711Z" fill="white"/>
<path d="M664.092 23.584C666.338 23.584 667.55 25.1463 667.55 27.675H662.638C662.748 28.3988 663.429 28.9063 664.225 28.9725C664.84 29.0387 665.458 28.796 665.812 28.3546L667.444 28.6856C667.046 29.6521 666.1 30.7731 664.225 30.7731C662.35 30.7731 660.635 29.3873 660.635 27.1675C660.635 24.9477 662.31 23.584 664.092 23.584ZM665.635 26.3334C665.569 25.7376 664.994 25.1021 664.137 25.1021C663.323 25.1021 662.792 25.6538 662.682 26.3334H665.635Z" fill="white"/>
<path d="M671.424 23.668L671.623 23.6239C671.844 23.6018 672.11 23.6239 672.348 23.646C673.516 23.7342 674.267 24.3079 674.44 24.6124C674.572 25.0317 674.528 25.7334 674.44 25.9982L672.919 25.8217L672.83 25.6451C672.786 25.601 672.742 25.5348 672.698 25.4907C672.432 25.3583 672.145 25.3362 671.818 25.3803C671.026 25.5127 670.496 26.1924 670.474 27.1853C670.474 28.1739 671.026 28.8359 671.818 28.9683C672.083 29.0124 672.371 28.9903 672.609 28.9021C673.007 28.8138 673.334 28.5931 673.511 28.3504L674.789 29.1845C674.678 29.361 674.48 29.6038 674.219 29.8641C673.887 30.1731 673.295 30.504 672.521 30.632C672.145 30.7203 671.774 30.7424 671.42 30.6982C669.788 30.4776 668.444 28.9153 668.444 27.1809C668.444 25.4465 669.788 23.8799 671.42 23.6636L671.424 23.668Z" fill="white"/>
<path d="M675.188 23.8445H676.156V21.7129H678.119V23.8445H679.463V25.5171H678.119V27.428C678.119 27.5824 678.097 27.7148 678.119 27.8472C678.141 28.3989 678.296 28.6813 678.583 28.7696C678.871 28.8799 679.158 28.7916 679.33 28.7916L679.64 30.5304C679.397 30.5084 678.804 30.707 678.119 30.6408C676.642 30.4642 676.222 29.3654 676.178 28.2223C676.156 27.9796 676.156 27.7369 676.156 27.4765V25.5171H675.188V23.8445Z" fill="white"/>
<path d="M680.858 23.6679H682.821V24.6123C683.087 24.1268 683.878 23.6237 684.696 23.5796C684.917 23.5796 685.094 23.5796 685.271 23.6017C685.735 23.6679 686.018 23.7782 686.151 23.7782L685.642 25.539C685.51 25.539 685.377 25.517 685.2 25.4949C684.869 25.4287 684.475 25.3846 684.033 25.4508C683.065 25.5832 682.821 26.5055 682.821 27.0351V30.6407H680.858V23.6679Z" fill="white"/>
<path d="M690.21 23.584C692.191 23.584 693.867 25.3007 693.867 27.1675C693.867 29.0343 692.191 30.7731 690.21 30.7731C688.229 30.7731 686.554 29.0563 686.554 27.1675C686.554 25.2786 688.252 23.584 690.21 23.584ZM690.188 28.9725C691.156 28.9725 691.886 28.2046 691.886 27.1675C691.886 26.1304 691.161 25.3846 690.188 25.3846C689.215 25.3846 688.534 26.1304 688.534 27.1675C688.534 28.2046 689.237 28.9946 690.188 28.9725Z" fill="white"/>
<path d="M695.069 23.6458H696.767V24.043C697.209 23.7562 697.758 23.5796 698.443 23.5796C700.512 23.5576 701.79 24.7889 701.768 26.7262L701.79 30.6407H699.831L699.809 27.0352C699.809 25.8701 699.367 25.2964 698.443 25.2964C697.629 25.2964 697.165 25.7598 697.099 26.66C697.077 26.8586 697.077 27.0793 697.077 27.3V30.6452H695.069V23.6502V23.6458Z" fill="white"/>
<path d="M703.23 23.6458H705.216V30.6407H703.23V23.6458ZM704.243 20.8743C704.508 20.8743 704.774 20.9405 704.99 21.0508C705.101 21.2715 705.167 21.5583 705.167 21.8408C705.167 22.1232 705.101 22.3924 704.99 22.6307C704.747 22.7411 704.46 22.8073 704.177 22.8073C703.894 22.8073 703.646 22.7411 703.429 22.6307C703.319 22.2777 703.253 21.907 703.253 21.4877C703.385 21.1567 703.805 20.8699 704.243 20.8699V20.8743Z" fill="white"/>
<path d="M709.345 23.668L709.544 23.6239C709.765 23.6018 710.031 23.6239 710.269 23.646C711.437 23.7342 712.188 24.3079 712.361 24.6124C712.493 25.0317 712.449 25.7334 712.361 25.9982L710.84 25.8217L710.751 25.6451C710.707 25.601 710.663 25.5348 710.619 25.4907C710.353 25.3583 710.066 25.3362 709.739 25.3803C708.947 25.5127 708.417 26.1924 708.395 27.1853C708.395 28.1739 708.947 28.8359 709.739 28.9683C710.004 29.0124 710.291 28.9903 710.53 28.9021C710.928 28.8138 711.255 28.5931 711.432 28.3504L712.71 29.1845C712.599 29.361 712.4 29.6038 712.14 29.8641C711.808 30.1731 711.215 30.504 710.442 30.632C710.066 30.7203 709.695 30.7424 709.341 30.6982C707.709 30.4776 706.365 28.9153 706.365 27.1809C706.365 25.4465 707.709 23.8799 709.341 23.6636L709.345 23.668Z" fill="white"/>
<path d="M652.982 39.5157C653.402 39.4495 653.862 39.4274 654.37 39.4936C656.156 39.648 657.279 40.9897 657.279 40.9897L656.245 42.2651C656.245 42.2651 655.542 41.6693 654.657 41.5634C652.367 41.0338 650.979 42.7726 650.979 44.4893C650.979 46.206 652.367 47.9625 654.657 47.4373C655.537 47.327 656.245 46.5591 656.245 46.5591L657.279 47.8566C657.279 47.8566 656.156 49.3526 654.37 49.5071C653.862 49.5733 653.402 49.5292 652.982 49.463C650.736 49.0879 648.839 46.9784 648.839 44.5158C648.839 42.0532 650.714 39.8952 652.982 39.5245V39.5157Z" fill="white"/>
<path d="M661.493 42.4197C663.474 42.4197 665.15 44.1364 665.15 46.0032C665.15 47.87 663.474 49.6088 661.493 49.6088C659.513 49.6088 657.837 47.892 657.837 46.0032C657.837 44.1143 659.535 42.4197 661.493 42.4197ZM661.471 47.8082C662.44 47.8082 663.169 47.0403 663.169 46.0032C663.169 44.9661 662.444 44.2203 661.471 44.2203C660.499 44.2203 659.818 44.9661 659.818 46.0032C659.818 47.0403 660.521 47.8302 661.471 47.8082Z" fill="white"/>
<path d="M666.351 42.4859H668.049V42.8169C668.447 42.5742 668.929 42.4198 669.57 42.4198C670.45 42.4198 671.179 42.6183 671.75 43.32C672.391 42.6183 673.049 42.4198 673.929 42.4198C675.804 42.3977 677.015 43.5186 677.104 45.1692C677.126 45.3457 677.126 45.5222 677.126 45.6988V49.4809H675.163V46.2239C675.163 45.9371 675.141 45.6546 675.119 45.3898C675.052 44.5557 674.677 44.1585 673.929 44.1365C673.182 44.1365 672.784 44.5337 672.718 45.3678L672.74 49.4809H670.755L670.733 45.434C670.688 44.5337 670.291 44.1365 669.565 44.1365C668.84 44.1365 668.398 44.5557 668.354 45.3898V49.4809H666.347V42.4859H666.351Z" fill="white"/>
<path d="M678.56 42.4859H680.258V42.8169C680.656 42.5742 681.138 42.4198 681.779 42.4198C682.659 42.4198 683.388 42.6183 683.959 43.32C684.6 42.6183 685.258 42.4198 686.138 42.4198C688.013 42.3977 689.224 43.5186 689.313 45.1692C689.335 45.3457 689.335 45.5222 689.335 45.6988V49.4809H687.372V46.2239C687.372 45.9371 687.35 45.6546 687.328 45.3898C687.261 44.5557 686.886 44.1585 686.138 44.1365C685.391 44.1365 684.993 44.5337 684.927 45.3678L684.949 49.4809H682.964L682.942 45.434C682.897 44.5337 682.5 44.1365 681.774 44.1365C681.049 44.1365 680.607 44.5557 680.563 45.3898V49.4809H678.556V42.4859H678.56Z" fill="white"/>
<path d="M693.885 42.4197C696.131 42.4197 697.343 43.9819 697.343 46.5107H692.431C692.541 47.2345 693.222 47.742 694.018 47.8082C694.632 47.8744 695.251 47.6317 695.605 47.1903L697.237 47.5213C696.839 48.4878 695.893 49.6088 694.018 49.6088C692.143 49.6088 690.428 48.223 690.428 46.0032C690.428 43.7834 692.103 42.4197 693.885 42.4197ZM695.428 45.1691C695.362 44.5733 694.787 43.9378 693.929 43.9378C693.116 43.9378 692.585 44.4895 692.475 45.1691H695.428Z" fill="white"/>
<path d="M698.588 42.5079H700.551V43.4524C700.816 42.9669 701.608 42.4638 702.426 42.4197C702.647 42.4197 702.824 42.4197 703 42.4417C703.465 42.5079 703.748 42.6183 703.88 42.6183L703.372 44.3791C703.239 44.3791 703.107 44.3571 702.93 44.335C702.598 44.2688 702.205 44.2247 701.762 44.2909C700.794 44.4233 700.551 45.3456 700.551 45.8752V49.4808H698.588V42.5079Z" fill="white"/>
<path d="M707.271 42.5079L707.47 42.4637C707.691 42.4417 707.956 42.4637 708.195 42.4858C709.362 42.5741 710.114 43.1478 710.286 43.4523C710.419 43.8715 710.375 44.5732 710.286 44.838L708.765 44.6615L708.677 44.485C708.633 44.4408 708.589 44.3746 708.544 44.3305C708.279 44.1981 707.992 44.176 707.665 44.2202C706.873 44.3526 706.343 45.0322 706.32 46.0252C706.32 47.0137 706.873 47.6757 707.665 47.8081C707.93 47.8522 708.217 47.8302 708.456 47.7419C708.854 47.6536 709.181 47.433 709.358 47.1903L710.636 48.0243C710.525 48.2009 710.326 48.4436 710.065 48.704C709.734 49.0129 709.141 49.3439 708.368 49.4719C707.992 49.5601 707.62 49.5822 707.267 49.5381C705.635 49.3174 704.291 47.7551 704.291 46.0208C704.291 44.2864 705.635 42.7197 707.267 42.5034L707.271 42.5079Z" fill="white"/>
<path d="M714.647 42.4197C716.893 42.4197 718.104 43.9819 718.104 46.5107H713.192C713.303 47.2345 713.984 47.742 714.78 47.8082C715.394 47.8744 716.013 47.6317 716.367 47.1903L717.998 47.5213C717.6 48.4878 716.654 49.6088 714.78 49.6088C712.905 49.6088 711.189 48.223 711.189 46.0032C711.189 43.7834 712.865 42.4197 714.647 42.4197ZM716.19 45.1691C716.124 44.5733 715.549 43.9378 714.691 43.9378C713.878 43.9378 713.347 44.4895 713.237 45.1691H716.19Z" fill="white"/>
<path d="M525.946 36.9869C528.073 39.1097 532.777 41.3472 537.366 41.3472C541.956 41.3472 544.865 39.6701 544.865 36.3205C544.865 29.0564 521.242 28.0502 521.131 15.0887C521.131 7.59951 527.847 0 537.03 0C542.853 0 550.577 2.68322 553.933 7.37444L546.766 12.8512C543.968 9.94732 541.615 9.72225 538.034 9.61192C533.891 9.50159 531.428 12.0701 531.318 14.8636C531.318 20.6758 555.835 21.5672 555.835 35.9851C555.835 36.4309 555.724 36.9913 555.609 37.4371C554.826 44.7012 547.102 51.5151 537.698 51.5151C530.982 51.5151 523.143 47.0446 519 43.0242L525.942 36.9913L525.946 36.9869Z" fill="white"/>
<path d="M560.686 0.445801H593.041V9.94298H570.987V21.0068H589.46V30.6188H570.987V41.5679H593.041V51.0651H560.686V0.445801Z" fill="white"/>
<path d="M616.324 0.445728C618.451 0.110325 620.803 -4.32134e-06 623.376 0.335398C632.444 1.11653 638.152 7.93491 638.152 7.93491L632.891 14.4179C632.891 14.4179 629.31 11.3993 624.831 10.8432C613.189 8.15998 606.133 16.9908 606.133 25.7068C606.133 34.4229 613.185 43.364 624.831 40.6808C629.31 40.1203 632.891 36.2102 632.891 36.2102L638.152 42.8035C638.152 42.8035 632.444 50.403 623.376 51.1841C620.803 51.5195 618.451 51.2945 616.324 50.9591C604.904 49.0614 595.278 38.3329 595.278 25.8171C595.278 13.3013 604.793 2.34781 616.324 0.445728Z" fill="white"/>
<path d="M74.5996 540.554H217V515.274H74.5996V540.554ZM217 447.434H74.5996V472.394H217V447.434ZM217 379.914H74.5996V404.554H217V379.914ZM159.72 335.434H266.6V598.474H217V583.434H74.5996V598.474H27.5596V335.434H110.12C113 321.994 115.56 306.954 116.84 294.794L173.8 300.554C169.32 312.714 164.2 324.874 159.72 335.434Z" fill="white"/>
<path d="M477.48 537.674H538.28V492.554H477.48V537.674ZM371.88 492.554V537.674H429.48V492.554H371.88ZM429.48 402.314H371.88V447.114H429.48V402.314ZM538.28 402.314H477.48V447.114H538.28V402.314ZM477.48 355.274H587.24V599.434H538.28V583.754H371.88V599.434H325.16V355.274H429.48V295.434H477.48V355.274Z" fill="white"/>
<path d="M695.4 540.554H837.8V515.274H695.4V540.554ZM837.8 447.434H695.4V472.394H837.8V447.434ZM837.8 379.914H695.4V404.554H837.8V379.914ZM780.52 335.434H887.4V598.474H837.8V583.434H695.4V598.474H648.36V335.434H730.92C733.8 321.994 736.36 306.954 737.64 294.794L794.6 300.554C790.12 312.714 785 324.874 780.52 335.434Z" fill="white"/>
<path d="M1148.2 484.554V547.914H1219.24V590.794H1027.56V547.914H1101.16V484.554H1039.72V441.674H1101.16V393.354H1148.2V441.674H1207.08V484.554H1148.2ZM1069.48 336.714H1220.84V381.194H1050.6C1040.36 402.954 1028.2 424.074 1013.8 443.594V598.794H966.76V494.474C959.4 500.874 951.4 506.954 943.08 512.394C938.28 499.274 928.04 478.474 921 466.954C953 446.794 978.6 415.754 997.48 381.194H932.52V336.714H1017.96C1023.4 322.634 1027.56 308.554 1031.08 294.794L1079.72 306.314C1076.52 316.554 1073 326.474 1069.48 336.714Z" fill="white"/>
<path d="M94.7963 140.138H62.6148C59.2469 144.442 55.692 148.558 52.1371 152.674H86.5638C89.3704 148.932 92.1769 144.442 94.7963 140.138ZM137.268 195.895V176.997H107.706V195.895H137.268ZM53.4468 176.997V195.895H80.3895V176.997H53.4468ZM76.2732 255.206H132.217C149.243 255.206 152.237 252.025 154.856 232.567C161.592 236.683 173.379 240.799 181.237 242.296C176.747 271.671 167.579 280.278 134.649 280.278H76.0861C37.356 280.278 25.9428 272.419 25.9428 241.735V177.559C24.0717 178.868 22.2007 180.365 20.3297 181.862C16.0264 175.501 7.04546 166.333 0.871094 162.029C26.5041 145.003 44.4659 122.738 54.5694 102.905L83.7573 108.705C82.0734 111.512 80.5766 114.131 78.7056 116.938H109.577L114.816 115.441L132.965 127.603C128.849 135.648 123.797 144.442 118.184 152.674H165.147V227.141H137.268V220.218H53.4468V241.548C53.4468 253.709 56.2533 255.206 76.2732 255.206Z" fill="white"/>
<path d="M300.047 187.288L331.48 180.552C343.455 197.017 348.881 210.115 348.881 225.831C348.881 254.083 323.435 275.974 280.776 275.974C249.156 275.974 228.387 262.503 228.387 231.07C228.387 226.954 228.761 220.966 229.51 213.857C216.6 212.547 205.187 210.489 196.019 208.056L197.515 180.927C209.303 184.856 220.903 187.101 232.503 188.224L235.123 167.455C222.587 166.146 210.425 163.713 199.948 160.907L201.257 135.087C211.548 138.642 224.832 140.887 238.117 142.009C238.678 137.332 239.052 133.216 239.239 129.661C239.613 124.235 240.175 118.247 239.613 111.325L271.046 113.009C269.175 120.867 268.24 126.293 267.304 131.532C266.93 133.964 266.369 137.893 265.62 142.945C278.343 142.758 289.757 141.822 297.428 140.513L296.492 167.081C286.202 168.204 276.847 168.952 262.066 168.952C261.13 175.688 260.195 182.798 259.446 189.533H259.633C270.111 189.533 284.331 188.598 295.931 187.288L295.183 213.857C286.015 214.792 275.537 215.54 264.498 215.54C261.878 215.54 259.259 215.54 256.827 215.54C256.453 219.844 256.265 223.586 256.265 226.205C256.265 240.051 265.059 246.787 281.711 246.787C306.222 246.787 318.383 235.186 318.383 222.089C318.383 209.553 311.273 198.514 300.047 187.288Z" fill="white"/>
<path d="M398.089 217.224C415.489 217.224 429.335 231.257 429.335 248.47C429.335 265.684 415.489 279.716 398.089 279.716C380.875 279.716 366.843 265.684 366.843 248.47C366.843 231.257 380.875 217.224 398.089 217.224ZM398.089 264C406.695 264 413.618 257.077 413.618 248.47C413.618 239.864 406.695 232.941 398.089 232.941C389.669 232.941 382.559 239.864 382.559 248.47C382.559 257.077 389.669 264 398.089 264Z" fill="white"/>
<path d="M591.739 143.693L611.011 153.048C610.45 156.042 609.701 161.468 609.701 163.339C608.953 184.856 606.52 235.935 598.662 255.58C594.546 265.871 586.688 271.671 572.468 271.671C560.868 271.671 549.641 270.736 540.848 269.987L537.293 239.677C546.086 241.361 555.629 242.483 562.739 242.483C569.1 242.483 571.158 240.238 573.029 235.56C577.52 225.27 580.139 192.714 580.139 172.32H543.654C536.918 219.657 519.892 249.406 485.278 274.291L458.897 252.961C467.691 248.096 477.981 241.173 486.588 232.193C502.866 215.353 510.724 195.895 514.092 172.32H492.949C487.149 172.32 475.175 172.507 466.568 173.255V143.693C475.175 144.629 485.84 145.19 492.949 145.19H516.337C516.524 140.325 516.524 135.461 516.524 130.409C516.524 126.293 515.776 116.751 515.028 112.26H548.332C547.77 116.751 547.209 125.357 547.022 129.848C546.835 135.087 546.648 140.325 546.274 145.19H576.21C580.887 145.19 586.501 144.629 591.739 143.693Z" fill="white"/>
<path d="M775.848 130.596L798.674 144.816C796.242 148.932 793.435 154.545 791.377 160.158C786.7 173.255 778.467 191.217 766.493 208.618C773.415 213.108 779.59 217.224 784.267 220.592L763.686 247.348C759.196 243.419 753.021 238.741 746.286 233.876C729.821 251.464 708.865 267.368 679.864 278.594L653.483 255.767C686.413 245.477 706.246 231.07 720.84 216.476C709.427 208.992 698.2 202.069 689.407 197.017L708.678 175.314C717.846 180.178 729.259 186.353 740.486 192.901C748.344 181.301 755.079 168.017 757.325 158.661H709.239C695.581 176.436 677.619 194.398 660.032 206.56L635.521 187.662C668.638 167.268 684.916 142.945 694.833 127.228C698.2 121.989 702.691 112.26 704.749 104.963L737.492 115.067C733.376 120.867 729.072 128.164 726.266 133.028H757.325C763.499 133.028 770.983 132.093 775.848 130.596Z" fill="white"/>
<path d="M920.852 173.255H965.569C969.498 173.255 979.415 172.507 983.718 172.133V201.134C978.105 200.759 971.557 200.385 966.131 200.385H919.916C916.361 230.134 902.89 257.638 872.018 276.536L843.017 257.077C870.709 244.541 885.115 225.27 889.606 200.385H840.585C834.972 200.385 827.675 200.759 822.623 201.134V172.133C828.236 172.694 834.411 173.255 840.398 173.255H890.916V150.99C873.515 152.3 855.179 153.048 843.392 153.235L836.282 127.228C850.689 127.415 879.877 127.415 900.645 124.235C920.478 121.241 937.691 117.312 947.233 112.634L965.756 137.519C958.085 139.39 952.472 140.887 949.104 141.635C940.31 143.88 930.768 145.751 920.852 147.248V173.255Z" fill="white"/>
<path d="M1110.2 187.288L1141.63 180.552C1153.61 197.017 1159.03 210.115 1159.03 225.831C1159.03 254.083 1133.59 275.974 1090.93 275.974C1059.31 275.974 1038.54 262.503 1038.54 231.07C1038.54 226.954 1038.91 220.966 1039.66 213.857C1026.75 212.547 1015.34 210.489 1006.17 208.056L1007.67 180.927C1019.45 184.856 1031.06 187.101 1042.66 188.224L1045.27 167.455C1032.74 166.146 1020.58 163.713 1010.1 160.907L1011.41 135.087C1021.7 138.642 1034.98 140.887 1048.27 142.009C1048.83 137.332 1049.2 133.216 1049.39 129.661C1049.77 124.235 1050.33 118.247 1049.77 111.325L1081.2 113.009C1079.33 120.867 1078.39 126.293 1077.46 131.532C1077.08 133.964 1076.52 137.893 1075.77 142.945C1088.5 142.758 1099.91 141.822 1107.58 140.513L1106.64 167.081C1096.35 168.204 1087 168.952 1072.22 168.952C1071.28 175.688 1070.35 182.798 1069.6 189.533H1069.79C1080.26 189.533 1094.48 188.598 1106.08 187.288L1105.33 213.857C1096.17 214.792 1085.69 215.54 1074.65 215.54C1072.03 215.54 1069.41 215.54 1066.98 215.54C1066.6 219.844 1066.42 223.586 1066.42 226.205C1066.42 240.051 1075.21 246.787 1091.86 246.787C1116.37 246.787 1128.54 235.186 1128.54 222.089C1128.54 209.553 1121.43 198.514 1110.2 187.288Z" fill="white"/>
<path d="M1208.24 217.224C1225.64 217.224 1239.49 231.257 1239.49 248.47C1239.49 265.684 1225.64 279.716 1208.24 279.716C1191.03 279.716 1176.99 265.684 1176.99 248.47C1176.99 231.257 1191.03 217.224 1208.24 217.224ZM1208.24 264C1216.85 264 1223.77 257.077 1223.77 248.47C1223.77 239.864 1216.85 232.941 1208.24 232.941C1199.82 232.941 1192.71 239.864 1192.71 248.47C1192.71 257.077 1199.82 264 1208.24 264Z" fill="white"/>
<path d="M24 647C24 641.477 28.4772 637 34 637H1214C1219.52 637 1224 641.477 1224 647V724C1224 729.523 1219.52 734 1214 734H34C28.4771 734 24 729.523 24 724V647Z" fill="white"/>
<path d="M191.902 671.063L197.979 674.013C197.802 674.957 197.566 676.668 197.566 677.258C197.33 684.043 196.563 700.15 194.085 706.345C192.787 709.59 190.309 711.419 185.825 711.419C182.167 711.419 178.627 711.124 175.854 710.888L174.733 701.33C177.506 701.861 180.515 702.215 182.757 702.215C184.763 702.215 185.412 701.507 186.002 700.032C187.418 696.787 188.244 686.521 188.244 680.09H176.739C174.615 695.017 169.246 704.398 158.331 712.245L150.012 705.519C152.785 703.985 156.03 701.802 158.744 698.97C163.877 693.66 166.355 687.524 167.417 680.09H160.75C158.921 680.09 155.145 680.149 152.431 680.385V671.063C155.145 671.358 158.508 671.535 160.75 671.535H168.125C168.184 670.001 168.184 668.467 168.184 666.874C168.184 665.576 167.948 662.567 167.712 661.151H178.214C178.037 662.567 177.86 665.281 177.801 666.697C177.742 668.349 177.683 670.001 177.565 671.535H187.005C188.48 671.535 190.25 671.358 191.902 671.063Z" fill="#FF3E01"/>
<path d="M249.486 664.396L255.327 668.703C254.796 669.47 253.557 671.535 252.908 673.01C250.961 677.376 247.834 683.276 243.999 688.586C249.722 693.542 256.802 701.035 260.047 705.047L251.846 712.186C248.07 706.817 243.055 701.153 237.745 696.02C231.55 702.451 223.821 708.41 216.092 712.127L208.658 704.398C218.216 700.917 227.538 693.66 232.789 687.819C236.624 683.453 239.81 678.261 241.049 674.485H222.7C220.045 674.485 216.8 674.839 215.148 674.957V664.809C217.213 665.104 220.989 665.281 222.7 665.281H242.406C245.356 665.281 248.129 664.868 249.486 664.396Z" fill="#FF3E01"/>
<path d="M310.728 666.933L317.926 671.417C317.159 672.715 316.274 674.485 315.625 676.255C314.15 680.385 311.554 686.049 307.778 691.536C309.961 692.952 311.908 694.25 313.383 695.312L306.893 703.749C305.477 702.51 303.53 701.035 301.406 699.501C296.214 705.047 289.606 710.062 280.461 713.602L272.142 706.404C282.526 703.159 288.78 698.616 293.382 694.014C289.783 691.654 286.243 689.471 283.47 687.878L289.547 681.034C292.438 682.568 296.037 684.515 299.577 686.58C302.055 682.922 304.179 678.733 304.887 675.783H289.724C285.417 681.388 279.753 687.052 274.207 690.887L266.478 684.928C276.921 678.497 282.054 670.827 285.181 665.871C286.243 664.219 287.659 661.151 288.308 658.85L298.633 662.036C297.335 663.865 295.978 666.166 295.093 667.7H304.887C306.834 667.7 309.194 667.405 310.728 666.933Z" fill="#FF3E01"/>
<path d="M379.876 707.702L370.2 712.009C369.492 710.062 368.607 707.82 367.604 705.46C357.869 706.64 340.936 708.351 333.797 709.118C332.322 709.295 329.844 709.649 327.897 709.885L326.245 699.442C328.369 699.442 331.26 699.442 333.266 699.383L334.151 699.324C337.573 690.474 342.175 675.665 343.945 669.352C344.83 666.225 345.184 664.101 345.479 661.918L356.807 664.219C355.922 666.166 354.978 668.703 354.034 671.417C352.028 677.258 347.721 690.71 344.889 698.557C351.202 697.967 358.223 697.141 363.651 696.492C361.763 692.539 359.816 688.94 358.046 686.521L367.014 682.863C371.262 689.412 377.044 700.858 379.876 707.702Z" fill="#FF3E01"/>
<path d="M422.887 671.122H429.141C431.265 671.122 434.333 670.827 435.867 670.591V679.972C433.743 679.913 431.324 679.854 429.672 679.854H423.123C423.3 688.291 423.536 697.141 423.654 705.401C423.713 709.59 421.353 712.068 416.338 712.068C412.444 712.068 409.258 711.95 405.659 711.714L404.833 702.451C407.429 702.864 410.556 703.1 412.444 703.1C413.801 703.1 414.391 702.333 414.391 700.622C414.391 697.141 414.391 692.657 414.332 687.701C409.022 694.427 399.818 701.92 391.204 706.463L384.655 699.029C395.806 693.778 405.128 686.344 409.848 679.854H395.747C393.505 679.854 390.555 679.972 388.372 680.09V670.65C390.024 670.886 393.387 671.122 395.511 671.122H413.919L413.742 667.7C413.624 665.812 413.447 663.393 413.093 661.092H423.182C422.887 663.098 422.769 665.694 422.828 667.7L422.887 671.122Z" fill="#FF3E01"/>
<path d="M446.074 691.949V680.68C448.434 680.857 453.39 681.093 456.281 681.093H487.61C490.265 681.093 493.156 680.798 494.867 680.68V691.949C493.333 691.89 490.029 691.595 487.61 691.595H456.281C452.918 691.595 448.493 691.772 446.074 691.949Z" fill="#FF3E01"/>
<path d="M551.035 668.113L547.554 669.588L552.805 672.833C552.038 674.131 551.153 675.901 550.504 677.671C549.029 681.801 546.433 687.465 542.657 692.952C544.84 694.368 546.787 695.666 548.262 696.728L541.772 705.165C540.356 703.926 538.409 702.451 536.285 700.917C531.093 706.463 524.485 711.478 515.34 715.018L507.021 707.82C517.405 704.575 523.659 700.032 528.261 695.43C524.662 693.07 521.122 690.887 518.349 689.294L524.426 682.45C527.317 683.984 530.916 685.931 534.456 687.996C536.934 684.338 539.058 680.149 539.766 677.199H524.603C520.296 682.804 514.632 688.468 509.086 692.303L501.357 686.344C511.8 679.913 516.933 672.243 520.06 667.287C521.122 665.635 522.538 662.567 523.187 660.266L533.512 663.452C532.214 665.281 530.857 667.582 529.972 669.116H539.766C541.3 669.116 543.07 668.939 544.486 668.644C543.424 666.52 542.126 664.042 540.887 662.272L546.433 660.03C547.908 662.213 549.973 666.048 551.035 668.113ZM548.144 659.44L553.69 657.198C555.224 659.44 557.348 663.216 558.351 665.222L552.805 667.582C551.625 665.163 549.737 661.682 548.144 659.44Z" fill="#FF3E01"/>
<path d="M564.074 691.949V680.68C566.434 680.857 571.39 681.093 574.281 681.093H605.61C608.265 681.093 611.156 680.798 612.867 680.68V691.949C611.333 691.89 608.029 691.595 605.61 691.595H574.281C570.918 691.595 566.493 691.772 564.074 691.949Z" fill="#FF3E01"/>
<path d="M635.314 661.505C639.444 663.747 645.757 667.7 649.12 670.001L643.81 677.907C640.27 675.547 634.252 671.712 630.122 669.411L635.314 661.505ZM623.219 703.218C629.886 702.097 636.789 700.327 643.456 696.728C653.604 691.123 662.1 682.804 666.761 674.308L672.248 684.102C666.584 692.421 658.147 699.796 648.353 705.401C642.335 708.764 633.662 711.832 628.588 712.658L623.219 703.218ZM626.11 675.075C630.358 677.317 636.612 681.27 639.916 683.571L634.665 691.595C631.066 689.117 625.107 685.223 620.918 682.981L626.11 675.075Z" fill="#FF3E01"/>
<path d="M692.544 661.918C700.391 662.862 718.032 666.402 725.466 668.998L721.808 677.907C715.082 675.429 697.677 671.476 689.24 670.414L692.544 661.918ZM689.889 677.966C698.503 679.382 713.902 682.745 721.336 685.223L717.855 694.191C711.129 691.654 695.612 688.114 686.585 686.639L689.889 677.966ZM686.939 694.722C697.205 696.256 715.908 700.622 724.05 703.513L720.097 712.481C712.073 709.295 692.78 705.165 683.34 703.749L686.939 694.722Z" fill="#FF3E01"/>
<path d="M776.855 701.861H779.51C781.103 701.861 784.23 701.743 785.941 701.566V710.77C784.643 710.711 781.339 710.593 779.628 710.593H749.243C747.001 710.593 745.408 710.652 742.93 710.77V701.507C744.582 701.684 747.06 701.861 749.243 701.861H767.061C767.887 697.082 768.949 690.179 769.185 686.934H754.789C752.842 686.934 750.069 687.111 748.24 687.229V677.848C749.892 678.084 753.137 678.261 754.73 678.261H768.3C769.657 678.261 772.607 677.966 773.492 677.494L780.336 680.857C780.041 681.742 779.805 682.981 779.687 683.689C779.215 686.934 777.74 696.256 776.855 701.861Z" fill="#FF3E01"/>
<path d="M810.1 712.304L803.315 706.404C804.141 704.634 804.2 703.513 804.2 702.038V671.004C804.2 668.408 803.846 665.517 803.433 663.57H814.643C814.23 666.284 813.994 668.408 813.994 671.004V700.091C822.667 697.436 835.529 690.002 843.199 680.916L848.273 689.058C839.954 698.793 827.623 705.696 814.171 710.416C813.286 710.711 811.752 711.183 810.1 712.304Z" fill="#FF3E01"/>
<path d="M856.769 691.949V680.68C859.129 680.857 864.085 681.093 866.976 681.093H898.305C900.96 681.093 903.851 680.798 905.562 680.68V691.949C904.028 691.89 900.724 691.595 898.305 691.595H866.976C863.613 691.595 859.188 691.772 856.769 691.949Z" fill="#FF3E01"/>
<path d="M928.01 661.505C932.14 663.747 938.453 667.7 941.816 670.001L936.506 677.907C932.966 675.547 926.948 671.712 922.818 669.411L928.01 661.505ZM915.915 703.218C922.582 702.097 929.485 700.327 936.152 696.728C946.3 691.123 954.796 682.804 959.457 674.308L964.944 684.102C959.28 692.421 950.843 699.796 941.049 705.401C935.031 708.764 926.358 711.832 921.284 712.658L915.915 703.218ZM918.806 675.075C923.054 677.317 929.308 681.27 932.612 683.571L927.361 691.595C923.762 689.117 917.803 685.223 913.614 682.981L918.806 675.075Z" fill="#FF3E01"/>
<path d="M1015.8 679.854V709.531C1015.8 710.475 1015.86 712.894 1015.86 714.015H1006.89C1006.89 713.484 1006.95 712.599 1006.95 711.714H985.358C983.765 711.714 981.169 711.832 980.166 711.891V703.218C981.169 703.336 983.234 703.454 985.417 703.454H1006.95V697.141H989.547C987.187 697.141 983.942 697.141 982.408 697.259V688.881C984.178 688.999 987.187 689.058 989.547 689.058H1006.95V683.453H988.78C986.243 683.453 982.408 683.571 980.756 683.689V675.134C982.526 675.311 986.243 675.429 988.78 675.429H1010.85C1012.26 675.429 1014.86 675.37 1015.86 675.311C1015.8 676.196 1015.8 678.556 1015.8 679.854Z" fill="#FF3E01"/>
<path d="M1042.23 663.216C1046.3 665.989 1054.03 672.125 1057.57 675.901L1050.26 683.394C1047.13 679.972 1039.7 673.482 1035.45 670.473L1042.23 663.216ZM1033.5 702.392C1042.17 701.212 1049.79 698.557 1055.57 695.194C1066.19 689.058 1074.15 679.913 1078.11 671.594L1083.65 681.683C1078.93 690.061 1070.55 698.262 1060.7 704.044C1054.68 707.584 1047.01 710.652 1039.58 711.832L1033.5 702.392Z" fill="#FF3E01"/>
</svg>
