<svg width="558" height="145" viewBox="0 0 558 145" fill="none" xmlns="http://www.w3.org/2000/svg">
<g clip-path="url(#clip0_36_1918)">
<path d="M368.076 25.4277C369.253 26.6077 371.843 27.8375 374.371 27.8375C376.899 27.8375 378.51 26.9059 378.51 25.055C378.51 21.0303 365.474 20.4713 365.412 13.2915C365.412 9.14264 369.117 4.93164 374.185 4.93164C377.394 4.93164 381.657 6.42226 383.503 9.01842L379.55 12.0493C378.002 10.4345 376.713 10.3103 374.73 10.2482C372.45 10.1861 371.087 11.6146 371.025 13.1549C371.025 16.3721 384.544 16.869 384.544 24.8563C384.544 25.1047 384.482 25.4152 384.42 25.6637C383.987 29.6883 379.724 33.4646 374.544 33.4646C370.839 33.4646 366.515 30.9926 364.235 28.7567L368.064 25.4152L368.076 25.4277Z" fill="#333333"/>
<path d="M388.001 13.5399H393.565V33.2285H388.001V13.5399ZM390.839 5.73898C391.583 5.73898 392.326 5.92531 392.933 6.23586C393.243 6.85695 393.429 7.66437 393.429 8.45936C393.429 9.25436 393.243 10.0121 392.933 10.6829C392.252 10.9934 391.446 11.1797 390.653 11.1797C389.86 11.1797 389.166 10.9934 388.559 10.6829C388.249 9.68913 388.063 8.64569 388.063 7.46562C388.435 6.53398 389.612 5.72656 390.839 5.72656V5.73898Z" fill="#333333"/>
<path d="M397.791 13.5398H402.549V14.4714C403.664 13.7882 405.015 13.3534 406.812 13.3534C409.278 13.3534 411.322 13.9124 412.921 15.8875C414.717 13.9124 416.564 13.3534 419.03 13.3534C424.284 13.2913 427.679 16.4465 427.927 21.0922C427.989 21.5891 427.989 22.086 427.989 22.5829V33.2284H422.487V24.0611C422.487 23.2536 422.425 22.4586 422.363 21.7133C422.177 19.3656 421.124 18.2476 419.03 18.1855C416.923 18.1855 415.82 19.3035 415.634 21.6512L415.696 33.2284H410.133L410.071 21.8375C409.947 19.3035 408.832 18.1855 406.799 18.1855C404.767 18.1855 403.528 19.3656 403.404 21.7133V33.2284H397.778V13.5398H397.791Z" fill="#333333"/>
<path d="M431.595 13.6638H437.084V22.5827C437.022 23.5143 437.084 24.4459 437.146 25.303C437.332 27.5266 438.571 28.7687 440.913 28.7687C443.255 28.7687 444.494 27.5266 444.68 25.303C444.742 24.4335 444.742 23.5019 444.742 22.5827V13.6638H450.306L450.244 24.2472C450.244 24.9304 450.244 25.5515 450.182 26.1601C449.81 30.6817 446.291 33.5884 440.975 33.5884C435.238 33.5263 431.595 30.4333 431.595 25.1043V13.6514V13.6638Z" fill="#333333"/>
<path d="M459.24 4.31027L459.302 23.0672C459.302 24.1231 459.488 24.9802 459.736 25.6013C460.169 27.3403 462.14 27.5143 462.945 27.5764C463.565 28.3217 462.449 32.4706 461.83 33.2159C456.328 33.0916 453.986 30.1228 453.8 25.2907V23.5517L453.738 4.29785H459.24V4.31027Z" fill="#333333"/>
<path d="M473.453 13.4155C473.825 13.3534 474.258 13.3534 474.754 13.3534C476.724 13.2913 479.636 13.6018 481.731 14.4713C482.288 14.3471 482.784 14.285 483.032 14.3471C483.837 14.4713 484.581 14.6577 485.25 14.844V33.2283H479.748V30.8185C478.199 32.6196 476.167 33.6631 473.453 33.4767C468.509 33.042 464.866 28.6446 464.866 23.4523C464.866 18.26 468.509 13.8627 473.453 13.4279V13.4155ZM475.188 28.1478C477.902 28.1478 479.76 26.2348 479.822 23.3157V23.2536C479.822 20.2847 477.852 18.3594 475.188 18.2972C472.536 18.2972 470.553 20.2723 470.553 23.2536C470.553 26.2348 472.412 28.1478 475.188 28.1478Z" fill="#333333"/>
<path d="M487.654 14.0989H490.368V8.09912H495.869V14.0989H499.636V18.8067H495.869V24.1854C495.869 24.6201 495.807 24.9928 495.869 25.3655C495.931 26.9182 496.365 27.7132 497.17 27.9616C497.976 28.2722 498.781 28.0237 499.265 28.0237L500.132 32.9179C499.45 32.8558 497.79 33.4148 495.869 33.2285C491.731 32.7316 490.553 29.6386 490.429 26.4213C490.368 25.7381 490.368 25.0549 490.368 24.322V18.8067H487.654V14.0989Z" fill="#333333"/>
<path d="M503.626 13.5399H509.19V33.2285H503.626V13.5399ZM506.464 5.73898C507.207 5.73898 507.951 5.92531 508.558 6.23586C508.868 6.85695 509.054 7.66437 509.054 8.45936C509.054 9.25436 508.868 10.0121 508.558 10.6829C507.877 10.9934 507.071 11.1797 506.278 11.1797C505.485 11.1797 504.791 10.9934 504.184 10.6829C503.874 9.68913 503.688 8.64569 503.688 7.46562C504.06 6.53398 505.237 5.72656 506.464 5.72656V5.73898Z" fill="#333333"/>
<path d="M522.684 13.3535C528.236 13.3535 532.932 18.1856 532.932 23.44C532.932 28.6945 528.236 33.5887 522.684 33.5887C517.133 33.5887 512.437 28.7566 512.437 23.44C512.437 18.1235 517.195 13.3535 522.684 13.3535ZM522.622 28.5206C525.336 28.5206 527.381 26.3592 527.381 23.44C527.381 20.5209 525.348 18.4216 522.622 18.4216C519.896 18.4216 517.988 20.5209 517.988 23.44C517.988 26.3592 519.958 28.5827 522.622 28.5206Z" fill="#333333"/>
<path d="M536.302 13.5397H541.061V14.6577C542.3 13.8502 543.837 13.3534 545.757 13.3534C551.556 13.2913 555.138 16.7569 555.076 22.2101L555.138 33.2283H549.648L549.586 23.0797C549.586 19.8003 548.347 18.1855 545.757 18.1855C543.477 18.1855 542.176 19.4897 541.99 22.0238C541.928 22.5828 541.928 23.2039 541.928 23.825V33.2407H536.302V13.5521V13.5397Z" fill="#333333"/>
<path d="M364.99 58.2085H382.834V63.4753H370.666V69.5993H380.852V74.9283H370.666V80.9901H382.834V86.257H364.99V58.2085Z" fill="#333333"/>
<path d="M391.273 57.3391L391.335 76.096C391.335 77.1519 391.521 78.009 391.768 78.6301C392.202 80.3691 394.172 80.5431 394.978 80.6052C395.597 81.3505 394.482 85.4994 393.863 86.2447C388.361 86.1205 386.019 83.1516 385.833 78.3195V76.5805L385.771 57.3267H391.273V57.3391Z" fill="#333333"/>
<path d="M406.626 66.3823C412.921 66.3823 416.316 70.7797 416.316 77.8974H402.549C402.859 79.9345 404.767 81.3631 406.997 81.5494C408.72 81.7357 410.455 81.0525 411.446 79.8103L416.018 80.742C414.903 83.4623 412.251 86.6175 406.997 86.6175C401.743 86.6175 396.936 82.717 396.936 76.4689C396.936 70.2207 401.632 66.3823 406.626 66.3823ZM410.95 74.1211C410.764 72.4442 409.154 70.6554 406.75 70.6554C404.47 70.6554 402.983 72.2082 402.673 74.1211H410.95Z" fill="#333333"/>
<path d="M427.171 66.6182L427.729 66.494C428.348 66.4319 429.092 66.494 429.761 66.5561C433.032 66.8045 435.139 68.4194 435.622 69.2765C435.994 70.4566 435.87 72.4316 435.622 73.1769L431.359 72.6801L431.111 72.1832C430.988 72.059 430.864 71.8726 430.74 71.7484C429.996 71.3758 429.191 71.3137 428.274 71.4379C426.056 71.8105 424.569 73.7235 424.507 76.5184C424.507 79.3009 426.056 81.1642 428.274 81.5368C429.017 81.661 429.823 81.5989 430.492 81.3505C431.607 81.1021 432.524 80.481 433.02 79.7978L436.601 82.1455C436.291 82.6424 435.733 83.3256 435.002 84.0585C434.073 84.928 432.413 85.8596 430.244 86.2199C429.191 86.4683 428.15 86.5304 427.159 86.4062C422.586 85.7851 418.819 81.3878 418.819 76.506C418.819 71.6242 422.586 67.2145 427.159 66.6058L427.171 66.6182Z" fill="#333333"/>
<path d="M437.716 67.115H440.43V61.1152H445.932V67.115H449.699V71.8228H445.932V77.2015C445.932 77.6363 445.87 78.0089 445.932 78.3816C445.994 79.9343 446.427 80.7293 447.233 80.9777C448.038 81.2883 448.844 81.0398 449.327 81.0398L450.194 85.934C449.513 85.8719 447.852 86.4309 445.932 86.2446C441.793 85.7477 440.616 82.6547 440.492 79.4374C440.43 78.7542 440.43 78.071 440.43 77.3381V71.8228H437.716V67.115Z" fill="#333333"/>
<path d="M453.614 66.6181H459.116V69.2763C459.86 67.9099 462.078 66.4938 464.37 66.3696C464.99 66.3696 465.485 66.3696 465.981 66.4317C467.282 66.6181 468.075 66.9286 468.447 66.9286L467.022 71.8849C466.65 71.8849 466.278 71.8228 465.783 71.7607C464.853 71.5744 463.75 71.4502 462.511 71.6365C459.798 72.0091 459.116 74.6053 459.116 76.0959V86.2446H453.614V66.6181Z" fill="#333333"/>
<path d="M479.822 66.3823C485.374 66.3823 490.07 71.2144 490.07 76.4689C490.07 81.7233 485.374 86.6175 479.822 86.6175C474.271 86.6175 469.574 81.7854 469.574 76.4689C469.574 71.1523 474.333 66.3823 479.822 66.3823ZM479.76 81.5494C482.474 81.5494 484.519 79.388 484.519 76.4689C484.519 73.5497 482.486 71.4504 479.76 71.4504C477.034 71.4504 475.126 73.5497 475.126 76.4689C475.126 79.388 477.096 81.6115 479.76 81.5494Z" fill="#333333"/>
<path d="M493.44 66.5563H498.199V67.6743C499.438 66.8668 500.974 66.37 502.895 66.37C508.694 66.3079 512.275 69.7735 512.213 75.2267L512.275 86.2449H506.786L506.724 76.0962C506.724 72.8169 505.485 71.2021 502.895 71.2021C500.615 71.2021 499.314 72.5063 499.128 75.0404C499.066 75.5994 499.066 76.2205 499.066 76.8416V86.2573H493.44V66.5687V66.5563Z" fill="#333333"/>
<path d="M516.315 66.556H521.879V86.2446H516.315V66.556ZM519.153 58.7551C519.896 58.7551 520.64 58.9414 521.247 59.252C521.557 59.8731 521.743 60.6805 521.743 61.4755C521.743 62.2705 521.557 63.0282 521.247 63.699C520.565 64.0095 519.76 64.1959 518.967 64.1959C518.174 64.1959 517.48 64.0095 516.873 63.699C516.563 62.7052 516.377 61.6618 516.377 60.4817C516.749 59.5501 517.926 58.7427 519.153 58.7427V58.7551Z" fill="#333333"/>
<path d="M533.452 66.6182L534.01 66.494C534.63 66.4319 535.373 66.494 536.042 66.5561C539.314 66.8045 541.42 68.4194 541.903 69.2765C542.275 70.4566 542.151 72.4316 541.903 73.1769L537.641 72.6801L537.393 72.1832C537.269 72.059 537.145 71.8726 537.021 71.7484C536.278 71.3758 535.472 71.3137 534.555 71.4379C532.337 71.8105 530.85 73.7235 530.788 76.5184C530.788 79.3009 532.337 81.1642 534.555 81.5368C535.299 81.661 536.104 81.5989 536.773 81.3505C537.889 81.1021 538.806 80.481 539.301 79.7978L542.882 82.1455C542.573 82.6424 542.015 83.3256 541.284 84.0585C540.354 84.928 538.694 85.8596 536.526 86.2199C535.472 86.4683 534.431 86.5304 533.44 86.4062C528.868 85.7851 525.101 81.3878 525.101 76.506C525.101 71.6242 528.868 67.2145 533.44 66.6058L533.452 66.6182Z" fill="#333333"/>
<path d="M375.486 111.225C376.663 111.039 377.952 110.976 379.377 111.163C384.383 111.598 387.531 115.374 387.531 115.374L384.631 118.964C384.631 118.964 382.661 117.287 380.182 116.989C373.764 115.498 369.873 120.392 369.873 125.224C369.873 130.056 373.764 135 380.182 133.522C382.648 133.212 384.631 131.05 384.631 131.05L387.531 134.702C387.531 134.702 384.383 138.913 379.377 139.348C377.952 139.534 376.663 139.41 375.486 139.224C369.191 138.168 363.875 132.23 363.875 125.299C363.875 118.367 369.129 112.293 375.486 111.25V111.225Z" fill="#333333"/>
<path d="M399.34 119.398C404.891 119.398 409.588 124.231 409.588 129.485C409.588 134.739 404.891 139.634 399.34 139.634C393.788 139.634 389.092 134.801 389.092 129.485C389.092 124.168 393.85 119.398 399.34 119.398ZM399.278 134.565C401.992 134.565 404.036 132.404 404.036 129.485C404.036 126.566 402.004 124.467 399.278 124.467C396.552 124.467 394.643 126.566 394.643 129.485C394.643 132.404 396.614 134.628 399.278 134.565Z" fill="#333333"/>
<path d="M412.958 119.585H417.716V120.517C418.832 119.834 420.182 119.399 421.979 119.399C424.445 119.399 426.489 119.958 428.088 121.933C429.885 119.958 431.731 119.399 434.197 119.399C439.451 119.337 442.846 122.492 443.094 127.138C443.156 127.635 443.156 128.131 443.156 128.628V139.274H437.654V130.106C437.654 129.299 437.592 128.504 437.53 127.759C437.344 125.411 436.291 124.293 434.197 124.231C432.103 124.231 430.988 125.349 430.802 127.697L430.864 139.274H425.3L425.238 127.883C425.114 125.349 423.999 124.231 421.967 124.231C419.934 124.231 418.695 125.411 418.571 127.759V139.274H412.946V119.585H412.958Z" fill="#333333"/>
<path d="M447.171 119.585H451.929V120.517C453.044 119.834 454.395 119.399 456.192 119.399C458.658 119.399 460.702 119.958 462.301 121.933C464.098 119.958 465.944 119.399 468.41 119.399C473.664 119.337 477.059 122.492 477.307 127.138C477.369 127.635 477.369 128.131 477.369 128.628V139.274H471.867V130.106C471.867 129.299 471.805 128.504 471.743 127.759C471.557 125.411 470.504 124.293 468.41 124.231C466.316 124.231 465.2 125.349 465.015 127.697L465.077 139.274H459.513L459.451 127.883C459.327 125.349 458.212 124.231 456.179 124.231C454.147 124.231 452.908 125.411 452.784 127.759V139.274H447.158V119.585H447.171Z" fill="#333333"/>
<path d="M490.12 119.398C496.415 119.398 499.81 123.796 499.81 130.913H486.043C486.353 132.951 488.261 134.379 490.492 134.565C492.214 134.752 493.949 134.069 494.94 132.826L499.513 133.758C498.397 136.478 495.746 139.634 490.492 139.634C485.238 139.634 480.43 135.733 480.43 129.485C480.43 123.237 485.126 119.398 490.12 119.398ZM494.444 127.137C494.259 125.46 492.648 123.672 490.244 123.672C487.964 123.672 486.477 125.224 486.167 127.137H494.444Z" fill="#333333"/>
<path d="M503.304 119.647H508.805V122.305C509.549 120.939 511.767 119.523 514.059 119.398C514.679 119.398 515.175 119.398 515.67 119.461C516.971 119.647 517.765 119.957 518.136 119.957L516.711 124.914C516.34 124.914 515.968 124.852 515.472 124.79C514.543 124.603 513.44 124.479 512.201 124.665C509.487 125.038 508.805 127.634 508.805 129.125V139.273H503.304V119.647Z" fill="#333333"/>
<path d="M527.641 119.647L528.199 119.523C528.818 119.461 529.562 119.523 530.231 119.585C533.502 119.833 535.609 121.448 536.092 122.305C536.464 123.485 536.34 125.46 536.092 126.206L531.829 125.709L531.581 125.212C531.457 125.088 531.334 124.901 531.21 124.777C530.466 124.405 529.661 124.342 528.744 124.467C526.526 124.839 525.039 126.752 524.977 129.547C524.977 132.33 526.526 134.193 528.744 134.566C529.487 134.69 530.293 134.628 530.962 134.379C532.077 134.131 532.994 133.51 533.49 132.827L537.071 135.174C536.761 135.671 536.203 136.354 535.472 137.087C534.543 137.957 532.883 138.888 530.714 139.249C529.661 139.497 528.62 139.559 527.628 139.435C523.056 138.814 519.289 134.417 519.289 129.535C519.289 124.653 523.056 120.243 527.628 119.635L527.641 119.647Z" fill="#333333"/>
<path d="M548.31 119.398C554.605 119.398 558 123.796 558 130.913H544.233C544.543 132.951 546.451 134.379 548.681 134.565C550.404 134.752 552.139 134.069 553.13 132.826L557.702 133.758C556.587 136.478 553.935 139.634 548.681 139.634C543.428 139.634 538.62 135.733 538.62 129.485C538.62 123.237 543.316 119.398 548.31 119.398ZM552.634 127.137C552.448 125.46 550.838 123.672 548.434 123.672C546.154 123.672 544.667 125.224 544.357 127.137H552.634Z" fill="#333333"/>
<path d="M19.4548 104.107C25.4151 110.082 38.5996 116.38 51.4619 116.38C64.3243 116.38 72.4779 111.66 72.4779 102.232C72.4779 81.7853 6.27027 78.9531 5.96048 42.4702C5.96048 21.3904 24.7831 0 50.5202 0C66.8397 0 88.4876 7.55247 97.8927 20.7569L77.8062 36.1724C69.9624 27.9988 63.3701 27.3653 53.333 27.0547C41.7222 26.7442 34.8202 33.9737 34.5104 41.8367C34.5104 58.1963 103.221 60.7055 103.221 101.288C103.221 102.542 102.911 104.12 102.589 105.374C100.396 125.821 78.7479 145 52.3913 145C33.5687 145 11.5986 132.417 -0.012207 121.1L19.4424 104.12L19.4548 104.107Z" fill="#A9BF04"/>
<path d="M116.814 1.25439H207.495V27.9862H145.687V59.1277H197.458V86.1824H145.687V117.001H207.495V143.733H116.814V1.25439Z" fill="#A9BF04"/>
<path d="M272.749 1.2547C278.709 0.310638 285.301 9.25958e-05 292.513 0.944152C317.928 3.14282 333.925 22.3345 333.925 22.3345L319.179 40.5822C319.179 40.5822 309.142 32.0857 296.59 30.5205C263.963 22.9681 244.186 47.8241 244.186 72.3572C244.186 96.8904 263.951 122.057 296.59 114.505C309.142 112.927 319.179 101.921 319.179 101.921L333.925 120.479C333.925 120.479 317.928 141.87 292.513 144.068C285.301 145.013 278.709 144.379 272.749 143.435C240.741 138.094 213.765 107.896 213.765 72.6678C213.765 37.4395 240.432 6.60851 272.749 1.2547Z" fill="#A9BF04"/>
</g>
<defs>
<clipPath id="clip0_36_1918">
<rect width="558" height="145" fill="white"/>
</clipPath>
</defs>
</svg>
