<svg width="110" height="37" viewBox="0 0 110 37" fill="none" xmlns="http://www.w3.org/2000/svg">
<path d="M25.1761 16.9004L24.0602 18.9694L27.7565 25.0368C27.8495 25.1763 27.8262 25.339 27.7332 25.4552C27.6635 25.5482 27.5472 25.5947 27.4543 25.5947C27.4078 25.5947 27.3613 25.5947 27.3148 25.5715L24.4322 24.4556L20.8057 25.432L32.894 30.0813C32.9405 30.1046 32.987 30.1046 33.0335 30.1046C33.1497 30.1046 33.2427 30.0581 33.3125 29.9651C33.4054 29.8489 33.4287 29.6629 33.3357 29.5234L25.1761 16.9004Z" fill="#0A3869"/>
<path d="M14.2968 0.162728C14.2271 0.0464936 14.1108 0 13.9946 0C13.9713 0 13.9248 -2.23517e-08 13.9016 0.0232468C13.7389 0.0697405 13.6459 0.209221 13.6226 0.371949L12.9485 13.4134L0.278962 16.8075C0.116234 16.8539 0.0232468 16.9934 0 17.1562C0 17.3189 0.0929873 17.4584 0.232468 17.5281L12.6463 22.2937L12.0186 29.3375L14.4595 22.9911L15.2499 20.9221L7.39249 17.9001C7.25301 17.8536 7.13678 17.6908 7.16002 17.5281C7.16002 17.3654 7.27626 17.2259 7.43898 17.1794L15.0639 15.1569L15.4824 7.2995C15.4824 7.13678 15.5986 6.9973 15.7613 6.9508C15.7846 6.9508 15.8311 6.9508 15.8543 6.9508C15.9706 6.9508 16.0868 7.02054 16.1565 7.11353L18.9462 11.4142L19.9225 8.85704L14.2968 0.162728Z" fill="#0A3869"/>
<path d="M34.8241 7.67123C34.7777 7.60149 34.7079 7.57824 34.6149 7.60149L32.081 8.27565L21.434 11.135L11.7168 36.4276L18.9698 23.665L23.1542 22.4795L20.876 20.2013L25.0372 12.5298C25.0605 12.4833 25.107 12.4601 25.1535 12.4368L27.8268 11.7162C27.8966 11.6929 27.9896 11.7162 28.0361 11.7859C28.0826 11.8557 28.0826 11.9254 28.0361 11.9951L26.2228 15.3427L26.5715 15.2497L34.8009 7.88045C34.8474 7.83396 34.8706 7.74097 34.8241 7.67123Z" fill="#0A3869"/>
<path d="M41.3561 23.4793H38.9385V14.4131H44.3085V16.3891H41.3561V18.1093H44.076V20.0853H41.3561V23.4793Z" fill="#0A3869"/>
<path d="M55.8164 18.9461C55.8164 20.4803 55.4445 21.6427 54.7006 22.4331C53.9567 23.2235 52.8641 23.6187 51.4228 23.6187C50.0047 23.6187 48.9121 23.2235 48.145 22.4098C47.3778 21.6194 47.0059 20.4571 47.0059 18.9228C47.0059 17.4118 47.3778 16.2494 48.145 15.459C48.9121 14.6686 50.0047 14.2734 51.446 14.2734C52.8873 14.2734 53.9799 14.6686 54.7238 15.459C55.4445 16.2494 55.8164 17.4118 55.8164 18.9461ZM49.563 18.9461C49.563 20.6896 50.1674 21.5729 51.3995 21.5729C52.0272 21.5729 52.4689 21.3637 52.7711 20.9453C53.0733 20.5268 53.2128 19.8527 53.2128 18.9461C53.2128 18.0394 53.05 17.3653 52.7478 16.9468C52.4456 16.5284 51.9807 16.2959 51.3763 16.2959C50.1907 16.2959 49.563 17.1793 49.563 18.9461Z" fill="#0A3869"/>
<path d="M61.4185 20.1783V23.4793H58.9775V14.4131H61.9531C64.4173 14.4131 65.6494 15.2965 65.6494 17.0865C65.6494 18.1326 65.1379 18.9462 64.1151 19.5274L66.7652 23.4793H63.9756L62.0461 20.1783H61.4185ZM61.4185 18.3418H61.8834C62.7435 18.3418 63.162 17.9699 63.162 17.2027C63.162 16.575 62.7435 16.2728 61.9066 16.2728H61.4185V18.3418Z" fill="#0A3869"/>
<path d="M73.0878 23.4791H70.6469V16.4353H68.4385V14.436H75.3195V16.4353H73.1111L73.0878 23.4791Z" fill="#0A3869"/>
<path d="M85.8269 14.4131V19.8761C85.8269 21.0617 85.5015 21.9916 84.8273 22.6425C84.1532 23.2934 83.1768 23.6188 81.9215 23.6188C80.6894 23.6188 79.7363 23.2934 79.0621 22.6657C78.388 22.038 78.0625 21.1314 78.0625 19.9458V14.4131H80.5267V19.7366C80.5267 20.3875 80.6429 20.8525 80.8754 21.1314C81.1078 21.4104 81.4798 21.5731 81.9447 21.5731C82.4562 21.5731 82.8049 21.4336 83.0373 21.1314C83.2698 20.8525 83.386 20.3643 83.386 19.7134V14.4131H85.8269Z" fill="#0A3869"/>
<path d="M97.8921 23.4793H94.6841L91.3598 17.0865H91.3133C91.383 18.0861 91.4295 18.8532 91.4295 19.3879V23.4793H89.2676V14.4131H92.4756L95.7767 20.713H95.8232C95.7767 19.8064 95.7302 19.0625 95.7302 18.5045V14.4131H97.9154L97.8921 23.4793Z" fill="#0A3869"/>
<path d="M106.959 23.479L106.517 21.7819H103.565L103.1 23.479H100.403L103.356 14.3662H106.633L109.632 23.479H106.959ZM106.006 19.7827L105.611 18.2949C105.518 17.9695 105.401 17.5278 105.285 17.0163C105.169 16.5049 105.076 16.1097 105.029 15.8773C104.983 16.0865 104.913 16.4352 104.82 16.9234C104.727 17.4115 104.472 18.3647 104.1 19.7827H106.006Z" fill="#0A3869"/>
</svg>
