<svg width="66" height="59" viewBox="0 0 66 59" fill="none" xmlns="http://www.w3.org/2000/svg">
<path fill-rule="evenodd" clip-rule="evenodd" d="M54.5653 1.2325C55.5415 0.256042 57.1244 0.255803 58.1008 1.23197C60.5222 3.65258 62.443 6.5265 63.7534 9.68957C65.0639 12.8526 65.7384 16.2429 65.7384 19.6667C65.7384 23.0905 65.0639 26.4807 63.7534 29.6438C62.443 32.8068 60.5222 35.6807 58.1008 38.1014C57.1244 39.0775 55.5415 39.0773 54.5653 38.1008C53.5891 37.1244 53.5894 35.5415 54.5658 34.5653C56.5227 32.609 58.0751 30.2863 59.1342 27.73C60.1933 25.1737 60.7384 22.4337 60.7384 19.6667C60.7384 16.8996 60.1933 14.1597 59.1342 11.6033C58.0751 9.04699 56.5227 6.72434 54.5658 4.76803C53.5894 3.79187 53.5891 2.20896 54.5653 1.2325ZM23 8.83333C20.1268 8.83333 17.3713 9.9747 15.3397 12.0063C13.308 14.038 12.1667 16.7935 12.1667 19.6667C12.1667 22.5398 13.308 25.2953 15.3397 27.327C17.3713 29.3586 20.1268 30.5 23 30.5C25.8732 30.5 28.6287 29.3586 30.6603 27.327C32.692 25.2953 33.8333 22.5398 33.8333 19.6667C33.8333 16.7935 32.692 14.038 30.6603 12.0063C28.6287 9.9747 25.8732 8.83333 23 8.83333ZM11.8041 8.47081C14.7735 5.50148 18.8007 3.83333 23 3.83333C27.1993 3.83333 31.2265 5.50148 34.1959 8.47081C37.1652 11.4401 38.8333 15.4674 38.8333 19.6667C38.8333 23.8659 37.1652 27.8932 34.1959 30.8625C31.2265 33.8318 27.1993 35.5 23 35.5C18.8007 35.5 14.7735 33.8318 11.8041 30.8625C8.83482 27.8932 7.16667 23.8659 7.16667 19.6667C7.16667 15.4674 8.83482 11.4401 11.8041 8.47081ZM47.3251 8.47272C48.3011 7.49614 49.884 7.4957 50.8606 8.47174C52.3315 9.94181 53.4983 11.6873 54.2944 13.6084C55.0905 15.5296 55.5002 17.5888 55.5002 19.6683C55.5002 21.7479 55.0905 23.8071 54.2944 25.7282C53.4983 27.6494 52.3315 29.3949 50.8606 30.8649C49.884 31.841 48.3011 31.8405 47.3251 30.8639C46.349 29.8874 46.3495 28.3045 47.3261 27.3284C48.3324 26.3227 49.1306 25.1285 49.6753 23.8142C50.2199 22.4998 50.5002 21.091 50.5002 19.6683C50.5002 18.2456 50.2199 16.8368 49.6753 15.5225C49.1306 14.2081 48.3324 13.014 47.3261 12.0083C46.3495 11.0322 46.349 9.4493 47.3251 8.47272ZM7.47086 44.824C11.5546 42.1018 17.0522 40.5 23 40.5C28.9478 40.5 34.4454 42.1018 38.5291 44.824C42.5957 47.5347 45.5 51.5543 45.5 56.3333C45.5 57.714 44.3807 58.8333 43 58.8333C41.6193 58.8333 40.5 57.714 40.5 56.3333C40.5 53.7457 38.9277 51.0987 35.7559 48.9844C32.6013 46.8816 28.0989 45.5 23 45.5C17.9011 45.5 13.3987 46.8816 10.2441 48.9844C7.07234 51.0987 5.5 53.7457 5.5 56.3333C5.5 57.714 4.38071 58.8333 3 58.8333C1.61929 58.8333 0.5 57.714 0.5 56.3333C0.5 51.5543 3.40433 47.5347 7.47086 44.824Z" fill="url(#paint0_linear_18_1806)"/>
<defs>
<linearGradient id="paint0_linear_18_1806" x1="65.7384" y1="58.8333" x2="-5.29482" y2="50.6207" gradientUnits="userSpaceOnUse">
<stop stop-color="#FFA75E"/>
<stop offset="1" stop-color="#FF3E01"/>
</linearGradient>
</defs>
</svg>
