<svg width="66" height="73" viewBox="0 0 66 73" fill="none" xmlns="http://www.w3.org/2000/svg">
<path d="M23.0283 16.3333V13C23.0283 10.3478 24.0819 7.8043 25.9573 5.92893C27.8326 4.05357 30.3762 3 33.0283 3C35.6805 3 38.224 4.05357 40.0994 5.92893C41.9748 7.8043 43.0283 10.3478 43.0283 13V16.3333M23.595 46.3333C24.2837 48.2851 25.5608 49.9752 27.2503 51.1707C28.9399 52.3662 30.9586 53.0082 33.0283 53.0082C35.098 53.0082 37.1168 52.3662 38.8063 51.1707C40.4959 49.9752 41.773 48.2851 42.4617 46.3333" stroke="url(#paint0_linear_18_1804)" stroke-width="5" stroke-linecap="round"/>
<path d="M60.4421 38.0867C58.4887 27.6833 57.5154 22.48 53.8087 19.4067C50.112 16.3333 44.8187 16.3333 34.2287 16.3333H31.8287C21.242 16.3333 15.9487 16.3333 12.2454 19.4067C8.54537 22.48 7.56871 27.6833 5.61537 38.0867C2.87204 52.7167 1.50204 60.03 5.50204 64.85C9.50204 69.6667 16.942 69.6667 31.8254 69.6667H34.232C49.1154 69.6667 56.5587 69.6667 60.5554 64.85C62.8754 62.05 63.3887 58.4167 62.8754 53" stroke="url(#paint1_linear_18_1804)" stroke-width="5" stroke-linecap="round"/>
<defs>
<linearGradient id="paint0_linear_18_1804" x1="43.0283" y1="53.0082" x2="20.9984" y2="52.0973" gradientUnits="userSpaceOnUse">
<stop stop-color="#FFA75E"/>
<stop offset="1" stop-color="#FF3E01"/>
</linearGradient>
<linearGradient id="paint1_linear_18_1804" x1="63.0572" y1="69.6667" x2="-2.32268" y2="62.0556" gradientUnits="userSpaceOnUse">
<stop stop-color="#FFA75E"/>
<stop offset="1" stop-color="#FF3E01"/>
</linearGradient>
</defs>
</svg>
